<svg xmlns="http://www.w3.org/2000/svg" viewBox="0 0 64 64">
  <defs>
    <linearGradient id="bg" x1="0%" y1="0%" x2="100%" y2="100%">
      <stop offset="0%" stop-color="#863bff"/>
      <stop offset="100%" stop-color="#5b2fbd"/>
    </linearGradient>
  </defs>
  <rect width="64" height="64" rx="14" fill="url(#bg)"/>
  <!-- 聊天气泡 -->
  <path d="M18 16h28c4.4 0 8 3.6 8 8v14c0 4.4-3.6 8-8 8H32l-10 10v-10h-4c-4.4 0-8-3.6-8-8V24c0-4.4 3.6-8 8-8z"
        fill="#ffffff" opacity="0.95"/>
  <!-- 铃铛 -->
  <path d="M32 28c-4.4 0-8 3.6-8 8v4l-2 4h20l-2-4v-4c0-4.4-3.6-8-8-8z"
        fill="#863bff"/>
  <circle cx="32" cy="46" r="3" fill="#5b2fbd"/>
  <circle cx="32" cy="46" r="1.5" fill="#ffd700"/>
</svg>
